<?xml version="1.0" encoding="UTF-8"?>
<svg width="14px" height="23px" viewBox="0 0 14 23" version="1.1" xmlns="http://www.w3.org/2000/svg" xmlns:xlink="http://www.w3.org/1999/xlink">
    <!-- Generator: Sketch 46.2 (44496) - http://www.bohemiancoding.com/sketch -->
    <title>arrow-left@2x</title>
    <desc>Created with Sketch.</desc>
    <defs></defs>
    <g id="新手上路" stroke="none" stroke-width="1" fill="none" fill-rule="evenodd">
        <g id="1" transform="translate(-336.000000, -367.000000)">
            <g id="arrow-right" transform="translate(324.000000, 359.000000)">
                <g id="Group-5">
                    <rect id="Rectangle-7" fill-opacity="0" fill="#D8D8D8" x="0" y="0" width="38" height="38"></rect>
                    <path d="M11.0008019,25.4893765 C10.3084141,26.1702078 9.20737186,26.1702078 8.51507298,25.4893765 C8.18579513,25.1656331 8,24.7205272 8,24.2556249 C8,23.7908127 8.18579513,23.3457369 8.51507298,23.0219634 L18.0984666,13.5114121 C18.7910027,12.8295293 19.8932014,12.8295293 20.5857078,13.5114121 L29.4841264,22.3427843 C29.8138787,22.6665276 30,23.1119639 30,23.5772568 C30,24.0425196 29.8138787,24.4879559 29.4841264,24.8118194 C28.7918276,25.4925307 27.6907853,25.4925307 26.9983975,24.8118194 L19.3404712,17.2109545 L11.0008019,25.4893765 Z" id="Fill-1" fill="#FFFFFF" transform="translate(19.000000, 19.500000) rotate(90.000000) translate(-19.000000, -19.500000) "></path>
                </g>
            </g>
        </g>
    </g>
</svg>